<svg xmlns="http://www.w3.org/2000/svg" width="45.908" height="39.196" viewBox="0 0 45.908 39.196"><defs><style>.a{fill:#ed1847;}</style></defs><path class="a" d="M153.592,228.6a7.1,7.1,0,0,1,3.321,9.475l2.691,1.3a10.085,10.085,0,0,0-4.71-13.465Zm2.273-4.715a12.331,12.331,0,0,1,5.756,16.461l2.76,1.331a15.4,15.4,0,0,0-7.185-20.552Zm-20.912,23.9-4.48-12.313-6.2,2.255a6.552,6.552,0,0,0,4.482,12.313Zm-12.092-2.569a3.912,3.912,0,0,1,2.309-5.023l3.732-1.36,2.69,7.388-3.734,1.358A3.915,3.915,0,0,1,122.861,245.216Zm22.607-22.174,8.964,24.625c-7.307-1.534-12.893-1.569-17.017-.779l-.9-2.479a40.665,40.665,0,0,1,13.9-.115l-5.854-16.082a40.085,40.085,0,0,1-10.724,8.845l-.9-2.481C136.554,232.564,140.739,229.065,145.468,223.042Zm-4.692,33.048a4.4,4.4,0,0,1-2.085-1.525l-3.131-4.2-7.567,2.757,4.979,6.389a2.1,2.1,0,0,0,2.37.681l5.494-2a1.109,1.109,0,0,0-.015-2.089Zm-5.97,1.511-2.554-3.254,2.38-.867,2.487,3.277Z" transform="translate(-120.001 -221.125)"/></svg>