<svg xmlns="http://www.w3.org/2000/svg" width="32" height="27.321" viewBox="0 0 32 27.321"><defs><style>.a{fill:#fff;}</style></defs><path class="a" d="M143.415,226.336a4.951,4.951,0,0,1,2.315,6.6l1.876.9a7.03,7.03,0,0,0-3.283-9.386ZM145,223.049a8.6,8.6,0,0,1,4.012,11.474l1.924.928a10.731,10.731,0,0,0-5.008-14.326Zm-14.576,16.659-3.123-8.583-4.32,1.572a4.567,4.567,0,0,0,3.124,8.583Zm-8.428-1.791a2.727,2.727,0,0,1,1.609-3.5l2.6-.948,1.875,5.149-2.6.947A2.729,2.729,0,0,1,121.994,237.917Zm15.758-15.456L144,239.626a30.629,30.629,0,0,0-11.862-.543l-.628-1.728a28.345,28.345,0,0,1,9.69-.08l-4.08-11.21a27.941,27.941,0,0,1-7.475,6.166l-.629-1.729C131.539,229.1,134.456,226.66,137.752,222.461ZM134.482,245.5a3.067,3.067,0,0,1-1.453-1.063l-2.183-2.925-5.275,1.921,3.471,4.453a1.464,1.464,0,0,0,1.652.475l3.829-1.393a.773.773,0,0,0-.011-1.456Zm-4.161,1.053-1.78-2.268,1.659-.6,1.733,2.284Z" transform="translate(-120.001 -221.125)"/></svg>