<svg xmlns="http://www.w3.org/2000/svg" width="41.75" height="30.421" viewBox="0 0 41.75 30.421"><defs><style>.a{fill:#f0f0f1;}.b{fill:none;stroke:#fff;stroke-linecap:round;stroke-linejoin:round;stroke-width:1.5px;}</style></defs><g transform="translate(0.75 0.75)"><path class="a" d="M140.86,225.767a4.411,4.411,0,0,1,2.062,5.884l1.671.805a6.263,6.263,0,0,0-2.925-8.362Zm1.411-2.928a7.658,7.658,0,0,1,3.574,10.222l1.714.827a9.56,9.56,0,0,0-4.462-12.763Zm-12.986,14.841-2.782-7.646-3.849,1.4a4.069,4.069,0,0,0,2.783,7.646Zm-7.509-1.6a2.429,2.429,0,0,1,1.434-3.119l2.318-.845,1.67,4.588-2.319.843A2.431,2.431,0,0,1,121.777,236.085Zm14.038-13.77,5.566,15.292a27.287,27.287,0,0,0-10.567-.483l-.56-1.539a25.252,25.252,0,0,1,8.632-.071l-3.635-9.987a24.893,24.893,0,0,1-6.659,5.493l-.561-1.541A26.9,26.9,0,0,0,135.815,222.315ZM132.9,242.837a2.732,2.732,0,0,1-1.295-.947l-1.945-2.606-4.7,1.712,3.092,3.968a1.3,1.3,0,0,0,1.472.423l3.412-1.241a.689.689,0,0,0-.01-1.3Zm-3.707.938-1.586-2.021,1.478-.538,1.544,2.035Z" transform="translate(-107.509 -215.794)"/><path class="b" d="M16.376,9.688A6.688,6.688,0,1,1,9.688,3a6.688,6.688,0,0,1,6.688,6.688Z" transform="translate(-3 -3)"/><path class="b" d="M18,12v5.35" transform="translate(-11.312 -7.987)"/><path class="b" d="M12,18h5.35" transform="translate(-7.987 -11.312)"/></g></svg>