<svg xmlns="http://www.w3.org/2000/svg" width="18.333" height="20" viewBox="0 0 18.333 20"><defs><style>.a{fill:#f0f0f1;}</style></defs><path class="a" d="M12.792,24.5h2.5a.418.418,0,0,0,.417-.417V4.917a.418.418,0,0,0-.417-.417h-2.5a.418.418,0,0,0-.417.417V24.083A.418.418,0,0,0,12.792,24.5Z" transform="translate(-7.375 -4.5)"/><path class="a" d="M6.042,28.583h2.5a.418.418,0,0,0,.417-.417v-7.5a.418.418,0,0,0-.417-.417h-2.5a.418.418,0,0,0-.417.417v7.5A.418.418,0,0,0,6.042,28.583Z" transform="translate(-5.625 -8.583)"/><path class="a" d="M19.547,27.417h2.49a.42.42,0,0,0,.422-.422V16.172a.42.42,0,0,0-.422-.422h-2.49a.42.42,0,0,0-.422.422V26.995A.42.42,0,0,0,19.547,27.417Z" transform="translate(-9.125 -7.417)"/><path class="a" d="M25.875,9.422V25.245a.42.42,0,0,0,.422.422h2.49a.42.42,0,0,0,.422-.422V9.422A.42.42,0,0,0,28.786,9H26.3A.42.42,0,0,0,25.875,9.422Z" transform="translate(-10.875 -5.667)"/></svg>