<svg xmlns="http://www.w3.org/2000/svg" width="20.144" height="23.022" viewBox="0 0 20.144 23.022"><defs><style>.a{fill:#fff;}</style></defs><path class="a" d="M23.695,7.078a20.389,20.389,0,0,0-1.96-2.242,20.391,20.391,0,0,0-2.242-1.96,3.586,3.586,0,0,0-2.044-.949H6.3a1.8,1.8,0,0,0-1.8,1.8V23.152a1.8,1.8,0,0,0,1.8,1.8H22.845a1.8,1.8,0,0,0,1.8-1.8V9.122a3.586,3.586,0,0,0-.949-2.044ZM20.717,5.854a19.624,19.624,0,0,1,1.632,1.829H18.888V4.222a19.6,19.6,0,0,1,1.829,1.632Zm2.487,17.3a.365.365,0,0,1-.36.36H6.3a.365.365,0,0,1-.36-.36V3.727a.365.365,0,0,1,.36-.36H17.449V8.4a.719.719,0,0,0,.719.719H23.2Zm-3.6-2.518H9.535a.719.719,0,1,1,0-1.439H19.607a.719.719,0,1,1,0,1.439Zm0-2.878H9.535a.719.719,0,0,1,0-1.439H19.607a.719.719,0,0,1,0,1.439Zm0-2.878H9.535a.719.719,0,1,1,0-1.439H19.607a.719.719,0,1,1,0,1.439Z" transform="translate(-4.499 -1.928)"/></svg>