<svg xmlns="http://www.w3.org/2000/svg" width="23.243" height="19.37" viewBox="0 0 23.243 19.37"><defs><style>.a{fill:#f0f0f1;fill-rule:evenodd;}</style></defs><path class="a" d="M5.645,5.874a2.905,2.905,0,1,1,0-1.937h13.24a4.358,4.358,0,1,1,0,8.716H14.362a2.906,2.906,0,0,1-5.48,0H4.358a2.421,2.421,0,1,0,0,4.842H17.6a2.905,2.905,0,1,1,0,1.937H4.358a4.358,4.358,0,1,1,0-8.716H8.882a2.906,2.906,0,0,1,5.48,0h4.524a2.421,2.421,0,1,0,0-4.842Zm5.976,4.842a.968.968,0,1,1-.968.968A.969.969,0,0,1,11.622,10.716Z" transform="translate(0 -2)"/></svg>