<svg xmlns="http://www.w3.org/2000/svg" width="60.252" height="40.639" viewBox="0 0 60.252 40.639"><defs><style>.a{fill:#ed1847;}.b{fill:none;stroke:#ed1847;stroke-linecap:round;stroke-linejoin:round;stroke-width:2.5px;}</style></defs><g transform="translate(-516.069 -93.694)"><path class="a" d="M151.753,228.191a6.714,6.714,0,0,1,3.139,8.956l2.544,1.226a9.533,9.533,0,0,0-4.452-12.728Zm2.148-4.457a11.656,11.656,0,0,1,5.441,15.559l2.609,1.259a14.553,14.553,0,0,0-6.792-19.427Zm-19.767,22.591L129.9,234.686l-5.858,2.132a6.193,6.193,0,0,0,4.237,11.639ZM122.7,243.9a3.7,3.7,0,0,1,2.182-4.748l3.528-1.286,2.542,6.983-3.53,1.284A3.7,3.7,0,0,1,122.7,243.9Zm21.369-20.96,8.473,23.277c-6.907-1.45-12.187-1.483-16.086-.736l-.852-2.343a38.438,38.438,0,0,1,13.14-.108l-5.533-15.2a37.891,37.891,0,0,1-10.137,8.361l-.853-2.345C135.647,231.938,139.6,228.631,144.073,222.937Zm-4.435,31.238a4.159,4.159,0,0,1-1.971-1.441l-2.96-3.967-7.153,2.606,4.707,6.039a1.985,1.985,0,0,0,2.24.644l5.193-1.89a1.048,1.048,0,0,0-.014-1.975Zm-5.643,1.428-2.414-3.076,2.249-.819,2.351,3.1Z" transform="translate(412.925 -123.842)"/><g transform="translate(517.319 94.944)"><path class="b" d="M19.952,11.476A8.476,8.476,0,1,1,11.476,3a8.476,8.476,0,0,1,8.476,8.476Z" transform="translate(-3 -3)"/><path class="b" d="M18,12v6.781" transform="translate(-9.524 -6.914)"/><path class="b" d="M12,18h6.781" transform="translate(-6.914 -9.524)"/></g></g></svg>