<svg xmlns="http://www.w3.org/2000/svg" width="35.11" height="39.124" viewBox="0 0 35.11 39.124"><defs><style>.a{fill:#ed1847;}</style></defs><g transform="translate(-147)"><g transform="translate(141.375 -4.5)"><path class="a" d="M13.264,43.624H18.6a.857.857,0,0,0,.889-.815V5.315A.857.857,0,0,0,18.6,4.5H13.264a.857.857,0,0,0-.889.815V42.808A.857.857,0,0,0,13.264,43.624Z" transform="translate(2.25)"/><path class="a" d="M6.514,39.8h5.334a.939.939,0,0,0,.889-.978v-17.6a.939.939,0,0,0-.889-.978H6.514a.939.939,0,0,0-.889.978v17.6A.939.939,0,0,0,6.514,39.8Z" transform="translate(0 3.82)"/><path class="a" d="M20.025,43.125h5.31a.944.944,0,0,0,.9-.99V16.74a.944.944,0,0,0-.9-.99h-5.31a.944.944,0,0,0-.9.99V42.135A.944.944,0,0,0,20.025,43.125Z" transform="translate(5.5 0.499)"/><path class="a" d="M25.875,9.99V47.117a.944.944,0,0,0,.9.99h5.31a.944.944,0,0,0,.9-.99V9.99a.944.944,0,0,0-.9-.99h-5.31A.944.944,0,0,0,25.875,9.99Z" transform="translate(7.75 -4.483)"/></g></g></svg>