<svg xmlns="http://www.w3.org/2000/svg" width="34" height="38.857" viewBox="0 0 34 38.857"><defs><style>.a{fill:#ed1847;}</style></defs><path class="a" d="M36.9,10.621a34.414,34.414,0,0,0-3.308-3.783,34.416,34.416,0,0,0-3.783-3.308c-1.957-1.435-2.906-1.6-3.45-1.6H7.534A3.039,3.039,0,0,0,4.5,4.964V37.749a3.039,3.039,0,0,0,3.036,3.036H35.463A3.039,3.039,0,0,0,38.5,37.749V14.071c0-.544-.166-1.493-1.6-3.45ZM31.872,8.554a33.121,33.121,0,0,1,2.754,3.088H28.784V5.8a33.087,33.087,0,0,1,3.088,2.754Zm4.2,29.195a.615.615,0,0,1-.607.607H7.534a.615.615,0,0,1-.607-.607V4.964a.615.615,0,0,1,.607-.607H26.356v8.5a1.214,1.214,0,0,0,1.214,1.214h8.5ZM30,33.5H13a1.214,1.214,0,1,1,0-2.429H30A1.214,1.214,0,1,1,30,33.5Zm0-4.857H13a1.214,1.214,0,1,1,0-2.429H30a1.214,1.214,0,1,1,0,2.429Zm0-4.857H13a1.214,1.214,0,1,1,0-2.429H30a1.214,1.214,0,1,1,0,2.429Z" transform="translate(-4.499 -1.928)"/></svg>