<svg xmlns="http://www.w3.org/2000/svg" width="45.006" height="37.505" viewBox="0 0 45.006 37.505"><defs><style>.a{fill:#ed1847;fill-rule:evenodd;}</style></defs><path class="a" d="M10.931,9.5a5.626,5.626,0,1,1,0-3.75H36.567a8.439,8.439,0,1,1,0,16.877H27.808a5.627,5.627,0,0,1-10.61,0H8.439a4.688,4.688,0,0,0,0,9.376H34.075a5.626,5.626,0,1,1,0,3.75H8.439a8.439,8.439,0,0,1,0-16.877H17.2a5.627,5.627,0,0,1,10.61,0h8.759a4.688,4.688,0,1,0,0-9.376ZM22.5,18.877a1.875,1.875,0,1,1-1.875,1.875A1.876,1.876,0,0,1,22.5,18.877Z" transform="translate(0 -2)"/></svg>